<?xml version="1.0" encoding="UTF-8"?>
<svg version="1.1" xmlns="http://www.w3.org/2000/svg" width="500" height="500">
<path d="M0 0 C2.037809 3.44377601 2.46831102 6.51716805 2.89453125 10.47265625 C2.96695038 11.12787766 3.03936951 11.78309906 3.11398315 12.45817566 C3.35470037 14.65884348 3.58375089 16.86055828 3.8125 19.0625 C3.98046904 20.62536927 4.14885587 22.18819369 4.31762695 23.75097656 C6.1076421 40.48325417 7.72374136 57.23455267 9.3371582 73.98461914 C9.44037384 75.0535994 9.54358948 76.12257965 9.64993286 77.22395325 C9.84318964 79.22839873 10.03546027 81.23293965 10.22653198 83.2375946 C10.61682064 87.28734055 11.0284931 91.32641638 11.55737305 95.3605957 C11.90906528 98.25230892 12.1284293 100.99659718 12.1328125 103.90234375 C12.13410156 104.72927734 12.13539063 105.55621094 12.13671875 106.40820312 C12.13285156 107.24287109 12.12898438 108.07753906 12.125 108.9375 C12.12886719 109.79923828 12.13273437 110.66097656 12.13671875 111.54882812 C12.12675118 117.87324882 12.12675118 117.87324882 11 119 C5.48712579 118.68324561 2.42691804 117.33589867 -1.875 113.9375 C-2.90367187 113.13054687 -3.93234375 112.32359375 -4.9921875 111.4921875 C-8.4424181 108.633425 -11.79377943 105.69333178 -15.0625 102.62890625 C-16.96122333 101.03260055 -18.74118936 100.00335562 -21 99 C-22.10499565 100.72863703 -23.20895914 102.45793388 -24.3125 104.1875 C-24.92738281 105.15042969 -25.54226563 106.11335938 -26.17578125 107.10546875 C-27.36687597 108.99540706 -28.51289662 110.91472804 -29.60546875 112.86328125 C-30.06566406 113.56839844 -30.52585937 114.27351563 -31 115 C-31.66 115 -32.32 115 -33 115 C-33.23332031 115.67675781 -33.46664062 116.35351562 -33.70703125 117.05078125 C-35.32086592 120.7318845 -37.42824312 123.8750557 -39.6875 127.1875 C-40.30141602 128.10112305 -40.30141602 128.10112305 -40.92773438 129.03320312 C-43.34957398 132.62318043 -45.82277066 136.17443552 -48.31640625 139.71484375 C-52.3981552 145.5330365 -56.32316146 151.45161168 -60.25 157.375 C-67.57797772 168.40643921 -74.98539745 179.38176347 -82.43652344 190.33032227 C-86.09352381 195.70558208 -89.7389694 201.08658485 -93.31542969 206.51586914 C-95.18943783 209.35816632 -97.0872916 212.18362469 -99 215 C-99.45310547 215.66902344 -99.90621094 216.33804688 -100.37304688 217.02734375 C-101.81400851 219.13559634 -103.2781893 221.22569687 -104.75 223.3125 C-105.18634766 223.95421143 -105.62269531 224.59592285 -106.07226562 225.25708008 C-108.95640233 229.27638061 -111.14309923 231.01575388 -116 232 C-121.53223843 232.63653505 -126.83049091 232.12862139 -132 230 C-135.31800944 226.26638773 -138.01072598 222.10205253 -140.75 217.9375 C-141.64060032 216.59243158 -142.53122561 215.24737968 -143.421875 213.90234375 C-143.85951172 213.23960449 -144.29714844 212.57686523 -144.74804688 211.89404297 C-146.49083099 209.25743627 -148.24520588 206.62862453 -150 204 C-150.64839844 203.02675781 -151.29679687 202.05351562 -151.96484375 201.05078125 C-153.37131745 198.94242048 -154.78033574 196.83575577 -156.19140625 194.73046875 C-162.06540778 185.95887276 -167.84072902 177.12499432 -173.60058594 168.27807617 C-178.02316884 161.48834234 -182.48573646 154.72916207 -187 148 C-187.78295211 146.82708984 -188.5654772 145.65389458 -189.34765625 144.48046875 C-189.76120361 143.86010742 -190.17475098 143.23974609 -190.60083008 142.60058594 C-191.44387106 141.33481297 -192.28616809 140.06854417 -193.12768555 138.80175781 C-195.35061932 135.45854792 -197.59097947 132.12897163 -199.859375 128.81640625 C-200.32230957 128.13553955 -200.78524414 127.45467285 -201.26220703 126.75317383 C-202.15341106 125.44319012 -203.05001626 124.13686051 -203.95263672 122.8347168 C-207 118.33736869 -207 118.33736869 -207 115 C-207.66 115 -208.32 115 -209 115 C-210.49633789 113.04394531 -210.49633789 113.04394531 -212.22265625 110.328125 C-212.84333984 109.35359375 -213.46402344 108.3790625 -214.10351562 107.375 C-214.74998047 106.34375 -215.39644531 105.3125 -216.0625 104.25 C-216.71283203 103.23421875 -217.36316406 102.2184375 -218.03320312 101.171875 C-223.29451703 92.8501298 -223.29451703 92.8501298 -224 89 C-224.66 89 -225.32 89 -226 89 C-227.35351562 87.21850586 -227.35351562 87.21850586 -228.90625 84.71484375 C-229.76706177 83.34138794 -229.76706177 83.34138794 -230.64526367 81.94018555 C-231.25732666 80.94929932 -231.86938965 79.95841309 -232.5 78.9375 C-233.77607482 76.9002463 -235.05342269 74.86378945 -236.33203125 72.828125 C-236.95932129 71.82716797 -237.58661133 70.82621094 -238.23291016 69.79492188 C-240.49360603 66.21928684 -242.82293232 62.69499066 -245.1875 59.1875 C-248.7815238 53.83289524 -252.34907129 48.46225838 -255.875 43.0625 C-256.32770264 42.37631592 -256.78040527 41.69013184 -257.24682617 40.9831543 C-259.42451168 37.63552686 -261.51416525 34.24235909 -263.4453125 30.74609375 C-263.79352051 30.12275146 -264.14172852 29.49940918 -264.50048828 28.85717773 C-265.18559031 26.30997777 -264.2303184 25.24765858 -263 23 C-255.15050022 22.83750616 -247.30139734 22.71328011 -239.45063591 22.6373148 C-235.80470069 22.60084592 -232.15991947 22.55142018 -228.51464844 22.47192383 C-224.99377309 22.39562457 -221.47400437 22.35396199 -217.95236588 22.3358593 C-215.96127015 22.31671 -213.9706173 22.2620999 -211.98019409 22.20692444 C-203.14550416 22.20309826 -203.14550416 22.20309826 -199.89807129 24.46226501 C-198.34525567 26.2311681 -197.15733383 27.9551534 -196 30 C-195.49436523 30.72372803 -194.98873047 31.44745605 -194.46777344 32.19311523 C-194.10200195 32.80872314 -193.73623047 33.42433105 -193.359375 34.05859375 C-192.93398437 34.7657251 -192.50859375 35.47285645 -192.0703125 36.20141602 C-191.63460937 36.93932373 -191.19890625 37.67723145 -190.75 38.4375 C-189.78713959 40.03947216 -188.82358411 41.64102674 -187.859375 43.2421875 C-187.38048828 44.04108398 -186.90160156 44.83998047 -186.40820312 45.66308594 C-180.90334254 54.7984059 -175.1633157 63.79242022 -169.375 72.75 C-168.95605469 73.398479 -168.53710938 74.04695801 -168.10546875 74.71508789 C-164.12677776 80.84762795 -160.06064514 86.92155655 -156 93 C-154.56748135 95.14828616 -153.13519291 97.29672585 -151.703125 99.4453125 C-149.42901955 102.85659695 -147.15481455 106.26781464 -144.88012695 109.67871094 C-141.36316548 114.95273409 -137.84731697 120.22747099 -134.33984375 125.5078125 C-133.80004883 126.31976074 -133.26025391 127.13170898 -132.70410156 127.96826172 C-131.73241394 129.43017294 -130.76162715 130.89268355 -129.79199219 132.35595703 C-127.65021069 135.57660315 -125.46571696 138.74191608 -123.17578125 141.859375 C-121 145 -121 145 -121 147 C-115.81841505 142.30418864 -112.02953029 136.6830272 -108 131 C-107.09981112 129.74678284 -106.19873439 128.49420305 -105.296875 127.2421875 C-104.38522638 125.97409511 -103.47376558 124.70586767 -102.5625 123.4375 C-102.12526611 122.8297876 -101.68803223 122.2220752 -101.23754883 121.59594727 C-98.94185682 118.40750607 -98.94185682 118.40750607 -97 115 C-96.34 115 -95.68 115 -95 115 C-94.7421875 114.11054688 -94.484375 113.22109375 -94.21875 112.3046875 C-92.99960993 108.99894231 -91.6534154 106.88737303 -89.5 104.125 C-80.7216805 92.40999134 -73.47615556 79.56860935 -66 67 C-71.48384317 64.68625815 -77.00129064 62.62842899 -82.671875 60.81640625 C-84.41017578 60.26049805 -84.41017578 60.26049805 -86.18359375 59.69335938 C-88.57428354 58.93530385 -90.96756708 58.18538328 -93.36328125 57.44335938 C-99.59605175 55.43424844 -104.37808368 53.71335712 -109 49 C-107.96271145 45.96472652 -107.08494495 45.05101286 -104.28881836 43.37182617 C-103.15065674 42.85080322 -102.01249512 42.32978027 -100.83984375 41.79296875 C-100.22250366 41.50666092 -99.60516357 41.22035309 -98.96911621 40.92536926 C-96.9641706 39.99995061 -94.95133379 39.09339268 -92.9375 38.1875 C-91.55768451 37.55608007 -90.17820898 36.92391674 -88.79907227 36.29101562 C-80.45955811 32.48113039 -72.06249284 28.84478038 -63.546875 25.4453125 C-58.96868618 23.57975098 -54.50892612 21.49559542 -50.03515625 19.39453125 C-47.09094348 18.04178484 -44.12394378 16.78843307 -41.125 15.5625 C-34.57341334 12.87089702 -28.18739374 9.85723884 -21.78222656 6.83886719 C-19.13031493 5.59065234 -16.47392421 4.3528037 -13.8125 3.125 C-12.55373047 2.54105469 -12.55373047 2.54105469 -11.26953125 1.9453125 C-7.39445968 0.33125515 -4.19368505 -0.11649125 0 0 Z " fill="#1F47B6" transform="translate(373,135)"/>
<path d="M0 0 C7.84949978 -0.16249384 15.69860266 -0.28671989 23.54936409 -0.3626852 C27.19529931 -0.39915408 30.84008053 -0.44857982 34.48535156 -0.52807617 C38.00622691 -0.60437543 41.52599563 -0.64603801 45.04763412 -0.6641407 C47.03872985 -0.68329 49.0293827 -0.7379001 51.01980591 -0.79307556 C59.85449584 -0.79690174 59.85449584 -0.79690174 63.10192871 1.46226501 C64.65474433 3.2311681 65.84266617 4.9551534 67 7 C67.50563477 7.72372803 68.01126953 8.44745605 68.53222656 9.19311523 C68.89799805 9.80872314 69.26376953 10.42433105 69.640625 11.05859375 C70.06601563 11.7657251 70.49140625 12.47285645 70.9296875 13.20141602 C71.36539063 13.93932373 71.80109375 14.67723145 72.25 15.4375 C73.21286041 17.03947216 74.17641589 18.64102674 75.140625 20.2421875 C75.61951172 21.04108398 76.09839844 21.83998047 76.59179688 22.66308594 C82.09665746 31.7984059 87.8366843 40.79242022 93.625 49.75 C94.04394531 50.398479 94.46289062 51.04695801 94.89453125 51.71508789 C98.87322224 57.84762795 102.93935486 63.92155655 107 70 C108.43251865 72.14828616 109.86480709 74.29672585 111.296875 76.4453125 C113.57098045 79.85659695 115.84518545 83.26781464 118.11987305 86.67871094 C121.63683452 91.95273409 125.15268303 97.22747099 128.66015625 102.5078125 C129.19995117 103.31976074 129.73974609 104.13170898 130.29589844 104.96826172 C131.26758606 106.43017294 132.23837285 107.89268355 133.20800781 109.35595703 C135.34978931 112.57660315 137.53428304 115.74191608 139.82421875 118.859375 C142 122 142 122 142 124 C141.34 124 140.68 124 140 124 C140.03029297 125.03253906 140.06058594 126.06507813 140.09179688 127.12890625 C140.84152692 153.09219931 141.13642662 179.02647025 141 205 C141.99 205 142.98 205 144 205 C144 205.99 144 206.98 144 208 C144.66 207.67 145.32 207.34 146 207 C147.99960012 206.960008 150.00047242 206.95653201 152 207 C152 207.33 152 207.66 152 208 C145.03401172 209.79767439 137.68105062 209.75102085 131 207 C127.68199056 203.26638773 124.98927402 199.10205253 122.25 194.9375 C121.35939968 193.59243158 120.46877439 192.24737968 119.578125 190.90234375 C119.14048828 190.23960449 118.70285156 189.57686523 118.25195312 188.89404297 C116.50916901 186.25743627 114.75479412 183.62862453 113 181 C112.35160156 180.02675781 111.70320313 179.05351562 111.03515625 178.05078125 C109.62868255 175.94242048 108.21966426 173.83575577 106.80859375 171.73046875 C100.93459222 162.95887276 95.15927098 154.12499432 89.39941406 145.27807617 C84.97683116 138.48834234 80.51426354 131.72916207 76 125 C75.21704789 123.82708984 74.4345228 122.65389458 73.65234375 121.48046875 C73.23879639 120.86010742 72.82524902 120.23974609 72.39916992 119.60058594 C71.55612894 118.33481297 70.71383191 117.06854417 69.87231445 115.80175781 C67.64938068 112.45854792 65.40902053 109.12897163 63.140625 105.81640625 C62.67769043 105.13553955 62.21475586 104.45467285 61.73779297 103.75317383 C60.84658894 102.44319012 59.94998374 101.13686051 59.04736328 99.8347168 C56 95.33736869 56 95.33736869 56 92 C55.34 92 54.68 92 54 92 C52.50366211 90.04394531 52.50366211 90.04394531 50.77734375 87.328125 C50.15666016 86.35359375 49.53597656 85.3790625 48.89648438 84.375 C48.25001953 83.34375 47.60355469 82.3125 46.9375 81.25 C46.28716797 80.23421875 45.63683594 79.2184375 44.96679688 78.171875 C39.70548297 69.8501298 39.70548297 69.8501298 39 66 C38.34 66 37.68 66 37 66 C35.64648438 64.21850586 35.64648438 64.21850586 34.09375 61.71484375 C33.51987549 60.79920654 32.94600098 59.88356934 32.35473633 58.94018555 C31.74267334 57.94929932 31.13061035 56.95841309 30.5 55.9375 C29.22392518 53.9002463 27.94657731 51.86378945 26.66796875 49.828125 C26.04067871 48.82716797 25.41338867 47.82621094 24.76708984 46.79492188 C22.50639397 43.21928684 20.17706768 39.69499066 17.8125 36.1875 C14.2184762 30.83289524 10.65092871 25.46225838 7.125 20.0625 C6.67229736 19.37631592 6.21959473 18.69013184 5.75317383 17.9831543 C3.57548832 14.63552686 1.48583475 11.24235909 -0.4453125 7.74609375 C-0.79352051 7.12275146 -1.14172852 6.49940918 -1.50048828 5.85717773 C-2.18559031 3.30997777 -1.2303184 2.24765858 0 0 Z " fill="#82BCE7" transform="translate(110,158)"/>
<path d="M0 0 C2.60018816 3.90028225 2.15085514 7.47434569 2 12 C1.01 11.67 0.02 11.34 -1 11 C-1 8.36 -1 5.72 -1 3 C-1.66 3 -2.32 3 -3 3 C-3.29044189 3.58322021 -3.58088379 4.16644043 -3.88012695 4.76733398 C-8.55621818 14.08995317 -13.38249756 23.2602533 -19.109375 31.984375 C-21.61136391 35.97515071 -23.90281604 40.06938121 -26.1875 44.1875 C-26.60378662 44.93636475 -27.02007324 45.68522949 -27.44897461 46.45678711 C-29.77106101 50.66891139 -31.96766253 54.90730404 -34.0012207 59.2668457 C-35 61 -35 61 -36.52026367 62.50463867 C-38.87117295 64.88037194 -39.72356229 67.94764897 -41 71 C-41.66 71.66 -42.32 72.32 -43 73 C-48.15590135 72.70166149 -52.31855579 70.66715535 -56.875 68.4375 C-57.56335938 68.10814453 -58.25171875 67.77878906 -58.9609375 67.43945312 C-60.6438733 66.63304639 -62.32240293 65.81745506 -64 65 C-63.34 66.32 -62.68 67.64 -62 69 C-64.09130637 72.15456165 -66.20013321 75.29700995 -68.3125 78.4375 C-68.90740234 79.33533203 -69.50230469 80.23316406 -70.11523438 81.15820312 C-70.69208984 82.01220703 -71.26894531 82.86621094 -71.86328125 83.74609375 C-72.39219971 84.53685303 -72.92111816 85.3276123 -73.46606445 86.14233398 C-75 88 -75 88 -78 89 C-78.2475 89.825 -78.495 90.65 -78.75 91.5 C-80.5139879 96.43916611 -83.67460215 99.99885285 -87 104 C-87 100.64235914 -86.4748463 99.81989393 -84.69140625 97.078125 C-84.19543945 96.30637939 -83.69947266 95.53463379 -83.18847656 94.73950195 C-82.6519043 93.91796631 -82.11533203 93.09643066 -81.5625 92.25 C-80.46343413 90.54127044 -79.36579568 88.83162198 -78.26953125 87.12109375 C-77.71990723 86.26499512 -77.1702832 85.40889648 -76.60400391 84.52685547 C-74.25520541 80.82669345 -71.99274954 77.07762589 -69.75 73.3125 C-69.36787354 72.67151367 -68.98574707 72.03052734 -68.59204102 71.37011719 C-67.72610571 69.91455295 -66.86271927 68.4574727 -66 67 C-71.48384317 64.68625815 -77.00129064 62.62842899 -82.671875 60.81640625 C-83.83074219 60.44580078 -84.98960937 60.07519531 -86.18359375 59.69335938 C-88.57428354 58.93530385 -90.96756708 58.18538328 -93.36328125 57.44335938 C-99.59605175 55.43424844 -104.37808368 53.71335712 -109 49 C-107.96271145 45.96472652 -107.08494495 45.05101286 -104.28881836 43.37182617 C-103.15065674 42.85080322 -102.01249512 42.32978027 -100.83984375 41.79296875 C-100.22250366 41.50666092 -99.60516357 41.22035309 -98.96911621 40.92536926 C-96.9641706 39.99995061 -94.95133379 39.09339268 -92.9375 38.1875 C-91.55768451 37.55608007 -90.17820898 36.92391674 -88.79907227 36.29101562 C-80.45955811 32.48113039 -72.06249284 28.84478038 -63.546875 25.4453125 C-58.96868618 23.57975098 -54.50892612 21.49559542 -50.03515625 19.39453125 C-47.09094348 18.04178484 -44.12394378 16.78843307 -41.125 15.5625 C-34.57341334 12.87089702 -28.18739374 9.85723884 -21.78222656 6.83886719 C-19.13031493 5.59065234 -16.47392421 4.3528037 -13.8125 3.125 C-12.97332031 2.73570312 -12.13414062 2.34640625 -11.26953125 1.9453125 C-7.39445968 0.33125515 -4.19368505 -0.11649125 0 0 Z " fill="#5E82D9" transform="translate(373,135)"/>
<path d="M0 0 C0.66 0 1.32 0 2 0 C4.8719099 2.8719099 4.90706298 6.14979588 5.5 10.01953125 C5.62818115 10.82437454 5.7563623 11.62921783 5.88842773 12.45845032 C7.18980703 20.84036843 8.13127294 29.25164079 9 37.6875 C9.1686971 39.28608625 9.33773 40.88463709 9.50708008 42.4831543 C10.75848546 54.36603934 11.92962836 66.25704133 13.04882812 78.15307617 C13.70461556 85.20598461 13.70461556 85.20598461 14.57421875 92.234375 C15.09289032 96.8215254 15.1463664 101.32591836 15.125 105.9375 C15.13080078 107.23010742 15.13080078 107.23010742 15.13671875 108.54882812 C15.12675118 114.87324882 15.12675118 114.87324882 14 116 C8.44845696 115.68742842 5.38859313 114.30103348 1.0625 110.875 C0.03769531 110.06933594 -0.98710937 109.26367188 -2.04296875 108.43359375 C-5.76871166 105.36736147 -9.43938672 102.25691391 -13 99 C-12.01 98.505 -12.01 98.505 -11 98 C-11 96.68 -11 95.36 -11 94 C-13.14781061 92.00113603 -15.21419844 90.29220135 -17.5625 88.5625 C-18.17158203 88.09779297 -18.78066406 87.63308594 -19.40820312 87.15429688 C-21.91376316 85.25325291 -24.43349306 83.38881673 -27.02685547 81.60888672 C-28.71499584 80.44900796 -30.36169044 79.2292593 -32 78 C-32 77.34 -32 76.68 -32 76 C-33.0828125 75.62875 -33.0828125 75.62875 -34.1875 75.25 C-37.24713266 73.89016326 -39.4673738 72.17082246 -42 70 C-40.824375 68.9171875 -40.824375 68.9171875 -39.625 67.8125 C-37.10172843 65.10899475 -36.24568309 63.38113981 -35 60 C-34.52546387 59.52771973 -34.05092773 59.05543945 -33.56201172 58.56884766 C-30.98843415 55.98400716 -29.68567805 52.62952104 -28.125 49.375 C-27.41018484 47.91731546 -26.69404824 46.46027815 -25.9765625 45.00390625 C-25.63399414 44.30668457 -25.29142578 43.60946289 -24.93847656 42.89111328 C-22.03271945 37.03575569 -18.69665156 31.48742318 -15.25 25.9375 C-11.65340152 20.14601918 -8.2769352 14.25366765 -4.96972656 8.29272461 C-3.39433623 5.45652661 -1.80087924 2.70131885 0 0 Z " fill="#2950BB" transform="translate(370,138)"/>
<path d="M0 0 C4.84427254 0.55384213 8.71893727 2.0831693 13 4.3125 C14.175625 4.90675781 15.35125 5.50101563 16.5625 6.11328125 C21.68861796 8.926821 25.9107451 11.83844 30 16 C31.91607216 17.48637473 33.85544857 18.94301115 35.8125 20.375 C40.37915362 23.75667129 44.74885714 27.23194156 49 31 C48.01 31.495 48.01 31.495 47 32 C47 32.66 47 33.32 47 34 C42.25 33.125 42.25 33.125 40 32 C38.68 34.31 37.36 36.62 36 39 C35.67 39 35.34 39 35 39 C35 37.35 35 35.7 35 34 C35.66 34 36.32 34 37 34 C36.505 31.03 36.505 31.03 36 28 C34.68 27.67 33.36 27.34 32 27 C32 26.34 32 25.68 32 25 C30.68 24.67 29.36 24.34 28 24 C28 23.34 28 22.68 28 22 C27.01 22 26.02 22 25 22 C24.67 21.01 24.34 20.02 24 19 C23.34 18.67 22.68 18.34 22 18 C22 17.34 22 16.68 22 16 C21.34 15.67 20.68 15.34 20 15 C19.34 14.34 18.68 13.68 18 13 C17.35675781 12.86335937 16.71351563 12.72671875 16.05078125 12.5859375 C13.43708602 11.83916744 12.77480986 10.79325612 11.1875 8.625 C8.15547738 4.84270647 5.48981845 3.67267746 1 2 C0.67 1.34 0.34 0.68 0 0 Z " fill="#072384" transform="translate(312,202)"/>
<path d="M0 0 C0.66 0 1.32 0 2 0 C3.90911415 6.42724064 4.27945704 12.22718518 4.23046875 18.91015625 C4.23001053 19.95409042 4.22955231 20.9980246 4.2290802 22.07359314 C4.2260683 24.28320451 4.21821396 26.49281396 4.20581055 28.70239258 C4.18783926 32.00024398 4.18529942 35.29780838 4.18554688 38.59570312 C4.16126917 52.75199202 3.73872724 66.86341814 3 81 C2.34 81 1.68 81 1 81 C0.17942983 53.99320251 -0.13703358 27.01880464 0 0 Z " fill="#09286E" transform="translate(250,282)"/>
<path d="M0 0 C0.33 0 0.66 0 1 0 C3.20361151 16.80602631 5.02133664 33.6269943 6.625 50.5 C6.95016062 53.8943478 7.27630825 57.28859698 7.60360718 60.68273926 C7.80426279 62.76618079 8.00359403 64.84975049 8.20132446 66.93347168 C8.59988086 71.09345678 9.01628623 75.24317604 9.55957031 79.38696289 C9.91093993 82.26940132 10.12844293 85.00563421 10.1328125 87.90234375 C10.13474609 89.14274414 10.13474609 89.14274414 10.13671875 90.40820312 C10.13285156 91.24287109 10.12898438 92.07753906 10.125 92.9375 C10.12886719 93.79923828 10.13273437 94.66097656 10.13671875 95.54882812 C10.12675118 101.87324882 10.12675118 101.87324882 9 103 C4.98363218 102.77265843 2.67707449 102.57290919 -0.4375 99.9375 C-0.953125 99.298125 -1.46875 98.65875 -2 98 C-0.35 98.33 1.3 98.66 3 99 C3 99.66 3 100.32 3 101 C4.65 101 6.3 101 8 101 C7.96970703 100.4423999 7.93941406 99.8847998 7.90820312 99.31030273 C7.29666578 87.86161798 6.84148067 76.46623164 7 65 C6.34 65 5.68 65 5 65 C3.46593721 61.93187442 3.6819533 58.66326708 3.53515625 55.2890625 C3.45662656 53.71873766 3.37784256 52.14842552 3.29882812 50.578125 C3.17923126 48.10072621 3.06242149 45.62326293 2.95043945 43.14550781 C2.84065105 40.75540722 2.7198358 38.36605723 2.59765625 35.9765625 C2.56736832 35.23789948 2.53708038 34.49923645 2.50587463 33.7381897 C2.30532763 29.94214691 1.75158804 27.33121953 0 24 C-0.22705078 21.34277344 -0.22705078 21.34277344 -0.1953125 18.359375 C-0.18886719 17.28945312 -0.18242187 16.21953125 -0.17578125 15.1171875 C-0.15902344 14.00601563 -0.14226562 12.89484375 -0.125 11.75 C-0.11597656 10.62335938 -0.10695313 9.49671875 -0.09765625 8.3359375 C-0.07410658 5.55707635 -0.0412168 2.7786461 0 0 Z " fill="#4359AD" transform="translate(375,151)"/>
<path d="M0 0 C0.66 0.33 1.32 0.66 2 1 C0 4 0 4 -2.5 5.4375 C-5.15726223 7.09828889 -5.90985696 8.12598653 -7 11 C-7.721875 10.79375 -8.44375 10.5875 -9.1875 10.375 C-13.46322937 9.80490275 -16.03760618 11.44046871 -19.6875 13.5625 C-24.07847154 15.46801595 -28.25893061 15.72827863 -33 16 C-33 16.99 -33 17.98 -33 19 C-35.3125 20.5625 -35.3125 20.5625 -38 22 C-38.99 22.66 -39.98 23.32 -41 24 C-42.32860925 24.35169068 -43.66158328 24.68770276 -45 25 C-45.33 25.33 -45.66 25.66 -46 26 C-47.66617115 26.04063832 -49.33388095 26.042721 -51 26 C-51.33 26.66 -51.66 27.32 -52 28 C-52.33 27.34 -52.66 26.68 -53 26 C-49.99838703 22.66122817 -47.15001672 20.87884151 -43.08203125 19.01171875 C-41.3350293 18.20408081 -41.3350293 18.20408081 -39.55273438 17.38012695 C-38.3061751 16.8155082 -37.05942682 16.25130657 -35.8125 15.6875 C-34.54343464 15.10611687 -33.27455507 14.52432804 -32.00585938 13.94213867 C-23.79186375 10.1890596 -15.51850742 6.60324064 -7.125 3.26953125 C-4.09054706 2.10082673 -4.09054706 2.10082673 -1.6875 0.76171875 C-1.130625 0.51035156 -0.57375 0.25898438 0 0 Z " fill="#8C9EDA" transform="translate(317,157)"/>
<path d="M0 0 C1.32570511 0.00666183 1.32570511 0.00666183 2.67819214 0.01345825 C3.67907867 0.01360931 4.67996521 0.01376038 5.71118164 0.01391602 C7.33623123 0.02939987 7.33623123 0.02939987 8.99411011 0.04519653 C10.65456863 0.04944138 10.65456863 0.04944138 12.34857178 0.05377197 C15.89458898 0.06499384 19.44035636 0.09010213 22.98629761 0.11550903 C25.38603355 0.12553624 27.78577344 0.13466253 30.18551636 0.14285278 C36.07752911 0.16493971 41.96939552 0.19843697 47.86129761 0.24050903 C42.23661488 3.99029752 35.00925911 3.38509311 28.42379761 3.33816528 C27.65825562 3.33675034 26.89271362 3.33533539 26.10397339 3.33387756 C23.68970618 3.32833756 21.27553617 3.31579682 18.86129761 3.30300903 C17.21155938 3.29798626 15.56181967 3.29342472 13.91207886 3.28933716 C9.89511506 3.27838789 5.87822274 3.26116569 1.86129761 3.24050903 C1.20129761 5.55050903 0.54129761 7.86050903 -0.13870239 10.24050903 C-0.79870239 9.91050903 -1.45870239 9.58050903 -2.13870239 9.24050903 C-2.86945888 6.92644684 -3.54008497 4.59222034 -4.13870239 2.24050903 C-2.13870239 0.24050903 -2.13870239 0.24050903 0 0 Z " fill="#AED1EA" transform="translate(112.13870239257813,157.75949096679688)"/>
<path d="M0 0 C3 1 3 1 5.1875 3.25 C7.54176818 5.55195111 9.33928004 6.88479356 12.125 8.5 C15.58037974 10.56416879 17.14070427 12.37437333 19 16 C20.29579647 17.36984198 21.61992749 18.7151049 23 20 C21.35 20 19.7 20 18 20 C17.67 19.34 17.34 18.68 17 18 C16.030625 17.814375 15.06125 17.62875 14.0625 17.4375 C7.07130817 15.6716089 1.91838378 8.96629011 -3 4 C-2.34 4 -1.68 4 -1 4 C-0.67 2.68 -0.34 1.36 0 0 Z " fill="#123294" transform="translate(360,232)"/>
<path d="M0 0 C0 5.62892212 -1.57395137 11.28874165 -5.1875 15.625 C-6.0846875 16.305625 -6.0846875 16.305625 -7 17 C-7.66 16.67 -8.32 16.34 -9 16 C-9 16.99 -9 17.98 -9 19 C-9.66 19 -10.32 19 -11 19 C-11.103125 19.515625 -11.20625 20.03125 -11.3125 20.5625 C-12.24263866 23.86026435 -13.61395512 26.86633332 -15 30 C-15.99 30 -16.98 30 -18 30 C-19.67359081 32.20913987 -21.00029823 34.54450818 -22.40234375 36.93359375 C-24 39 -24 39 -26.19140625 39.78515625 C-27.08666016 39.89150391 -27.08666016 39.89150391 -28 40 C-24.20313371 34.17526193 -20.21681966 28.52754746 -16.09375 22.9296875 C-13.13690815 18.79231551 -10.39894364 14.52583395 -7.6640625 10.23828125 C-7.11492187 9.49964844 -6.56578125 8.76101562 -6 8 C-5.34 8 -4.68 8 -4 8 C-3.71125 7.05125 -3.4225 6.1025 -3.125 5.125 C-2 2 -2 2 0 0 Z " fill="#5674C7" transform="translate(282,242)"/>
<path d="M0 0 C5.81264225 1.0197618 11.14650196 2.69446947 16.625 4.875 C17.24576416 5.11943848 17.86652832 5.36387695 18.50610352 5.61572266 C22.91430265 7.41072688 26.91876618 9.57643955 31 12 C31 12.33 31 12.66 31 13 C24.50681793 12.46915162 18.83462578 11.24827007 12.6875 9.125 C11.5109082 8.74021484 11.5109082 8.74021484 10.31054688 8.34765625 C2.71314739 5.77861207 2.71314739 5.77861207 0 3 C0 2.01 0 1.02 0 0 Z " fill="#274695" transform="translate(266,183)"/>
<path d="M0 0 C-0.33 0.33 -0.66 0.66 -1 1 C-1.1533135 2.99274158 -1.23847619 4.99075538 -1.29711914 6.98852539 C-1.33708511 8.26977798 -1.37705109 9.55103058 -1.41822815 10.87110901 C-1.4573068 12.27995525 -1.49628033 13.6888044 -1.53515625 15.09765625 C-1.57814649 16.53113553 -1.62156294 17.96460209 -1.66539001 19.39805603 C-1.7797914 23.17746507 -1.88837982 26.95701993 -1.99578857 30.7366333 C-2.10633537 34.59080229 -2.22233742 38.44480656 -2.33789062 42.29882812 C-2.56395552 49.86573422 -2.78388422 57.43280252 -3 65 C-3.33 65 -3.66 65 -4 65 C-4.01030746 64.30366455 -4.02061493 63.6073291 -4.03123474 62.88989258 C-4.12956858 56.29947749 -4.23213094 49.70914299 -4.33933926 43.11886597 C-4.39429808 39.73145542 -4.44767184 36.34403593 -4.49731445 32.95654297 C-4.55531131 29.05428511 -4.6189204 25.15215223 -4.68359375 21.25 C-4.70030624 20.04448486 -4.71701874 18.83896973 -4.73423767 17.59692383 C-4.83819913 11.65182942 -5.10961369 5.88098574 -6 0 C-2.25 -1.125 -2.25 -1.125 0 0 Z " fill="#355CBC" transform="translate(258,282)"/>
<path d="M0 0 C0.33 0 0.66 0 1 0 C1 13.2 1 26.4 1 40 C1.99 40 2.98 40 4 40 C4 40.99 4 41.98 4 43 C4.99 42.505 4.99 42.505 6 42 C7.99960012 41.960008 10.00047242 41.95653201 12 42 C12 42.33 12 42.66 12 43 C5.40717171 44.70137504 -1.37433627 44.35911051 -8 43 C-8 42.01 -8 41.02 -8 40 C-4.98968256 39.06576355 -4.13349732 38.95550089 -1 40 C-1.00523682 39.07251953 -1.01047363 38.14503906 -1.01586914 37.18945312 C-1.03301327 33.71548834 -1.04549965 30.24156918 -1.05493164 26.76757812 C-1.05992943 25.27017503 -1.0667299 23.77277673 -1.07543945 22.27539062 C-1.08770623 20.11066495 -1.09327397 17.94600435 -1.09765625 15.78125 C-1.10289307 14.48251953 -1.10812988 13.18378906 -1.11352539 11.84570312 C-0.9946608 7.81913327 -0.56026769 3.98584904 0 0 Z " fill="#6299CF" transform="translate(250,323)"/>
<path d="M0 0 C0.33 0 0.66 0 1 0 C1.06058594 0.58007812 1.12117187 1.16015625 1.18359375 1.7578125 C1.56243299 5.28975985 1.95368218 8.75914733 2.625 12.25 C3.02085511 15.15293746 2.68718451 17.17490814 2 20 C2 20.99 2 21.98 2 23 C2.54269531 22.72285156 3.08539063 22.44570313 3.64453125 22.16015625 C4.35996094 21.79792969 5.07539063 21.43570312 5.8125 21.0625 C6.52019531 20.70285156 7.22789062 20.34320313 7.95703125 19.97265625 C10 19 10 19 13 18 C13 17.34 13 16.68 13 16 C13.66 16 14.32 16 15 16 C15.12375 15.030625 15.2475 14.06125 15.375 13.0625 C15.58125 12.051875 15.7875 11.04125 16 10 C16.66 9.67 17.32 9.34 18 9 C18.7421875 10.61328125 18.7421875 10.61328125 19 13 C16.39143371 18.00084443 12.83262714 23.90856795 7.39453125 26.00390625 C4.9375 26.25 4.9375 26.25 1 26 C-0.01973129 22.94080612 -0.11533602 20.87581975 -0.09765625 17.67578125 C-0.09443359 16.64775391 -0.09121094 15.61972656 -0.08789062 14.56054688 C-0.07951172 13.48869141 -0.07113281 12.41683594 -0.0625 11.3125 C-0.05798828 10.22904297 -0.05347656 9.14558594 -0.04882812 8.02929688 C-0.03703743 5.35280915 -0.02058063 2.67643223 0 0 Z " fill="#1F3F98" transform="translate(253,340)"/>
<path d="M0 0 C4.21465036 1.52485103 5.80917801 4.25623237 8.1875 7.9375 C9.22970703 9.52884766 9.22970703 9.52884766 10.29296875 11.15234375 C12 14 12 14 13 17 C12.34 17 11.68 17 11 17 C11 28.88 11 40.76 11 53 C10.67 53 10.34 53 10 53 C10.01160156 51.93676514 10.02320313 50.87353027 10.03515625 49.77807617 C10.06801139 45.78352423 10.04761977 41.79062384 10.01220703 37.79614258 C10.0041612 36.07674924 10.01001766 34.35722648 10.03076172 32.63793945 C10.14367758 22.41905368 10.06590409 15.15581003 2.8125 7.2199707 C0.80552704 4.7618073 0.35223421 3.11610322 0 0 Z " fill="#5888C0" transform="translate(239,265)"/>
<path d="M0 0 C-0.33 0.66 -0.66 1.32 -1 2 C-3.28515625 2.4140625 -3.28515625 2.4140625 -6.0625 2.625 C-7.44115234 2.73714844 -7.44115234 2.73714844 -8.84765625 2.8515625 C-9.55792969 2.90054688 -10.26820313 2.94953125 -11 3 C-11 3.99 -11 4.98 -11 6 C-13.3125 7.5625 -13.3125 7.5625 -16 9 C-16.99 9.66 -17.98 10.32 -19 11 C-20.32860925 11.35169068 -21.66158328 11.68770276 -23 12 C-23.33 12.33 -23.66 12.66 -24 13 C-25.66617115 13.04063832 -27.33388095 13.042721 -29 13 C-29.33 13.66 -29.66 14.32 -30 15 C-30.33 14.34 -30.66 13.68 -31 13 C-26.69754593 8.31247474 -21.78469138 6.26824173 -16.0625 3.6875 C-15.07314453 3.22021484 -14.08378906 2.75292969 -13.06445312 2.27148438 C-12.10603516 1.83513672 -11.14761719 1.39878906 -10.16015625 0.94921875 C-9.29011963 0.55049561 -8.42008301 0.15177246 -7.52368164 -0.2590332 C-4.61412492 -1.11329504 -2.88451354 -0.82373091 0 0 Z " fill="#8DA1DE" transform="translate(295,170)"/>
<path d="M0 0 C0.33 0 0.66 0 1 0 C2.9771036 14.97024987 4.91991922 29.87440508 4 45 C3.505 45.495 3.505 45.495 3 46 C-1.01636782 45.77265843 -3.32292551 45.57290919 -6.4375 42.9375 C-6.953125 42.298125 -7.46875 41.65875 -8 41 C-6.35 41.33 -4.7 41.66 -3 42 C-3 42.66 -3 43.32 -3 44 C-1.35 44 0.3 44 2 44 C1.93941406 42.95134766 1.87882812 41.90269531 1.81640625 40.82226562 C1.59047338 36.90117118 1.36755461 32.97991001 1.14550781 29.05859375 C1.04931451 27.36714113 0.95232311 25.67573369 0.85449219 23.984375 C0.71335188 21.5417836 0.57516066 19.09903969 0.4375 16.65625 C0.39375244 15.91008423 0.35000488 15.16391846 0.30493164 14.3951416 C0.03769003 9.58882536 -0.0380541 4.81384333 0 0 Z " fill="#546BA6" transform="translate(381,208)"/>
<path d="M0 0 C0.33 0.99 0.66 1.98 1 3 C-0.56192991 5.59719752 -2.16213079 7.99272929 -3.9375 10.4375 C-4.95529715 11.87308145 -5.97221592 13.30928604 -6.98828125 14.74609375 C-7.49697754 15.46007324 -8.00567383 16.17405273 -8.52978516 16.90966797 C-11.30193423 20.85107287 -13.90863424 24.90059786 -16.5390625 28.9375 C-17.26222656 29.9584375 -17.26222656 29.9584375 -18 31 C-18.33 31 -18.66 31 -19 31 C-19.2295711 27.63295715 -19.33943529 25.58629732 -17.625 22.625 C-17.08875 22.08875 -16.5525 21.5525 -16 21 C-15.34 21 -14.68 21 -14 21 C-14 20.34 -14 19.68 -14 19 C-13.34 18.67 -12.68 18.34 -12 18 C-11.34786708 15.97536745 -11.34786708 15.97536745 -11 14 C-10.34 14 -9.68 14 -9 14 C-9 12.68 -9 11.36 -9 10 C-8.34 10 -7.68 10 -7 10 C-6.773125 9.46375 -6.54625 8.9275 -6.3125 8.375 C-4.56617944 5.21499137 -2.3597151 2.7323017 0 0 Z " fill="#385AA3" transform="translate(333,258)"/>
<path d="M0 0 C2.97 0.495 2.97 0.495 6 1 C6.0825 2.093125 6.165 3.18625 6.25 4.3125 C6.64754553 8.00403714 6.64754553 8.00403714 8.9375 9.9375 C10.90964337 11.1526522 10.90964337 11.1526522 13 11 C13 12.32 13 13.64 13 15 C13.99 16.485 13.99 16.485 15 18 C15.70164642 19.98799818 16.37372872 21.98698517 17 24 C16.01 24 15.02 24 14 24 C12.80493164 22.62646484 12.80493164 22.62646484 11.66015625 20.7109375 C11.23669922 20.01613281 10.81324219 19.32132813 10.37695312 18.60546875 C9.94318359 17.86941406 9.50941406 17.13335937 9.0625 16.375 C8.20000596 14.94483746 7.33673546 13.51514287 6.47265625 12.0859375 C6.05902832 11.39338867 5.64540039 10.70083984 5.21923828 9.98730469 C4.0921573 8.15021235 2.90767089 6.3748843 1.68359375 4.6015625 C0 2 0 2 0 0 Z " fill="#ABCEE5" transform="translate(112,168)"/>
<path d="M0 0 C3.64032621 1.45712037 5.14956981 3.24159445 7.26953125 6.5 C7.84767578 7.386875 8.42582031 8.27375 9.02148438 9.1875 C9.61251953 10.115625 10.20355469 11.04375 10.8125 12 C11.42287109 12.928125 12.03324219 13.85625 12.66210938 14.8125 C15.97566705 19.95281045 15.97566705 19.95281045 17 22 C16.67 22.66 16.34 23.32 16 24 C15.34 24 14.68 24 14 24 C12.21772936 21.61573112 10.56299699 19.23767714 8.9375 16.75 C8.47794922 16.06808594 8.01839844 15.38617188 7.54492188 14.68359375 C4.09776796 9.46983673 4.09776796 9.46983673 3.54907227 6.83300781 C3.36787842 6.22811523 3.18668457 5.62322266 3 5 C2.01 4.67 1.02 4.34 0 4 C0 2.68 0 1.36 0 0 Z " fill="#81A8D0" transform="translate(224,242)"/>
<path d="M0 0 C2.60018816 3.90028225 2.15085514 7.47434569 2 12 C1.01 11.67 0.02 11.34 -1 11 C-1 8.36 -1 5.72 -1 3 C-1.66 3 -2.32 3 -3 3 C-3.66 4.32 -4.32 5.64 -5 7 C-5.5775 6.835 -6.155 6.67 -6.75 6.5 C-9.26664369 5.85537969 -9.26664369 5.85537969 -13 6 C-12.34 5.67 -11.68 5.34 -11 5 C-10.71125 4.34 -10.4225 3.68 -10.125 3 C-9 1 -9 1 -7.1875 0.25 C-4.77172869 -0.02608815 -2.42947614 -0.06748545 0 0 Z " fill="#6080D0" transform="translate(373,135)"/>
<path d="M0 0 C0.66 1.32 1.32 2.64 2 4 C0.71632558 5.83893824 -0.57716761 7.67102625 -1.875 9.5 C-2.59429687 10.5209375 -3.31359375 11.541875 -4.0546875 12.59375 C-4.69664062 13.3878125 -5.33859375 14.181875 -6 15 C-6.66 15 -7.32 15 -8 15 C-8.185625 15.804375 -8.37125 16.60875 -8.5625 17.4375 C-10.53232435 22.31923861 -13.65622186 25.97673753 -17 30 C-17 26.57670223 -16.37056402 25.65059299 -14.55078125 22.83203125 C-14.03193359 22.02056641 -13.51308594 21.20910156 -12.97851562 20.37304688 C-12.42873047 19.52806641 -11.87894531 18.68308594 -11.3125 17.8125 C-10.24595992 16.15242972 -9.17955239 14.49227428 -8.11328125 12.83203125 C-7.33331787 11.62474365 -7.33331787 11.62474365 -6.53759766 10.39306641 C-4.32489235 6.94928466 -2.16116868 3.476314 0 0 Z " fill="#90A5E2" transform="translate(303,209)"/>
<path d="M0 0 C3.17090332 3.02651193 5.38518598 6.39591928 7.75 10.0625 C8.17410156 10.69994141 8.59820312 11.33738281 9.03515625 11.99414062 C10.08862735 13.6223883 11.05231028 15.30799645 12 17 C11.67 17.66 11.34 18.32 11 19 C4.42857143 15 4.42857143 15 3 11 C2.34 12.32 1.68 13.64 1 15 C1.01160156 14.41992188 1.02320313 13.83984375 1.03515625 13.2421875 C1.08762174 8.7001754 0.91751063 4.47286431 0 0 Z " fill="#A4C6E1" transform="translate(177,167)"/>
<path d="M0 0 C0.66 0 1.32 0 2 0 C1.51710431 4.90103087 0.18794413 7.62558606 -2.8125 11.5 C-3.53179687 12.44488281 -4.25109375 13.38976562 -4.9921875 14.36328125 C-5.65476562 15.23339844 -6.31734375 16.10351562 -7 17 C-7.82590823 18.22019775 -8.64207007 19.44721851 -9.4375 20.6875 C-9.953125 21.450625 -10.46875 22.21375 -11 23 C-11.33 23 -11.66 23 -12 23 C-11.75 19.6875 -11.75 19.6875 -11 16 C-9.67218122 14.9926892 -8.33790641 13.99387334 -7 13 C-5.83565787 10.69653615 -4.87058419 8.36372325 -3.9296875 5.9609375 C-3 4 -3 4 -1 3 C-0.67 2.01 -0.34 1.02 0 0 Z " fill="#364D97" transform="translate(284,328)"/>
<path d="M0 0 C2.375 0.25 2.375 0.25 5 1 C6.125 2.9375 6.125 2.9375 7 5 C7.99 5.66 8.98 6.32 10 7 C10 7.66 10 8.32 10 9 C10.66 9.33 11.32 9.66 12 10 C11.67 11.32 11.34 12.64 11 14 C11.66 14.33 12.32 14.66 13 15 C13 16.65 13 18.3 13 20 C9.36428659 16.6811607 6.86067641 12.99935849 4.25 8.875 C3.83878906 8.24207031 3.42757812 7.60914063 3.00390625 6.95703125 C0 2.25656665 0 2.25656665 0 0 Z " fill="#A2C9E7" transform="translate(132,199)"/>
<path d="M0 0 C0.33 0 0.66 0 1 0 C1.50943785 3.81129968 2.0058065 7.62419614 2.5 11.4375 C2.64308594 12.50677734 2.78617187 13.57605469 2.93359375 14.67773438 C3.7257749 20.84543049 4.15691598 26.7822041 4 33 C3.67 33 3.34 33 3 33 C-0.0819153 25.75558805 -0.37085802 19.23726815 -0.1875 11.4375 C-0.17396484 10.33341797 -0.16042969 9.22933594 -0.14648438 8.09179688 C-0.11144815 5.39400728 -0.06232591 2.69727364 0 0 Z " fill="#5068B0" transform="translate(375,151)"/>
<path d="M0 0 C1.32570511 0.00666183 1.32570511 0.00666183 2.67819214 0.01345825 C3.67907867 0.01360931 4.67996521 0.01376038 5.71118164 0.01391602 C7.33623123 0.02939987 7.33623123 0.02939987 8.99411011 0.04519653 C10.65456863 0.04944138 10.65456863 0.04944138 12.34857178 0.05377197 C15.89458898 0.06499384 19.44035636 0.09010213 22.98629761 0.11550903 C25.38603355 0.12553624 27.78577344 0.13466253 30.18551636 0.14285278 C36.07752911 0.16493971 41.96939552 0.19843697 47.86129761 0.24050903 C47.86129761 0.57050903 47.86129761 0.90050903 47.86129761 1.24050903 C31.69129761 1.24050903 15.52129761 1.24050903 -1.13870239 1.24050903 C-1.46870239 2.89050903 -1.79870239 4.54050903 -2.13870239 6.24050903 C-2.79870239 4.92050903 -3.45870239 3.60050903 -4.13870239 2.24050903 C-2.13870239 0.24050903 -2.13870239 0.24050903 0 0 Z " fill="#D0E6F8" transform="translate(112.13870239257813,157.75949096679688)"/>
<path d="M0 0 C2.475 0.495 2.475 0.495 5 1 C4.67 1.66 4.34 2.32 4 3 C4.51949219 3.23074219 5.03898437 3.46148437 5.57421875 3.69921875 C10.19749219 5.86130411 13.65159896 8.02377376 17 12 C17 12.66 17 13.32 17 14 C19.97 14.495 19.97 14.495 23 15 C20 16 20 16 16.375 14.6875 C13 13 13 13 12 11 C10.02477154 9.95191959 8.02518491 8.9479589 6 8 C6 7.34 6 6.68 6 6 C5.38125 5.87625 4.7625 5.7525 4.125 5.625 C2 5 2 5 0 3 C0 2.01 0 1.02 0 0 Z " fill="#133397" transform="translate(309,200)"/>
<path d="M0 0 C1.45903258 0.30921884 2.91720722 0.62248799 4.375 0.9375 C5.18710937 1.11152344 5.99921875 1.28554687 6.8359375 1.46484375 C9.7072023 2.17488577 10.72218939 2.60140217 12.4375 5.0625 C13.12042799 8.62890174 12.50714597 9.32227372 10.625 12.3125 C9.76701156 13.55360093 8.89707079 14.78684721 8 16 C7.34 15.67 6.68 15.34 6 15 C6.58678331 11.47930015 7.35649921 9.28700157 9 6 C6.03 4.35 3.06 2.7 0 1 C0 0.67 0 0.34 0 0 Z " fill="#6D8DD8" transform="translate(298,196)"/>
<path d="M0 0 C9.46543847 -1.06107228 9.46543847 -1.06107228 13.1015625 1.453125 C14.70586763 3.26272036 15.99923805 4.79549135 17 7 C16.67 7.99 16.34 8.98 16 10 C15.38125 9.505 14.7625 9.01 14.125 8.5 C12.16119096 6.80777227 12.16119096 6.80777227 10 7 C10 5.68 10 4.36 10 3 C6.26513121 2.4254048 2.78706732 2 -1 2 C-0.67 1.34 -0.34 0.68 0 0 Z " fill="#A5CCE4" transform="translate(160,158)"/>
<path d="M0 0 C2 1 2 1 3.375 2.5 C5.22951249 4.21185769 6.54524501 4.57676638 9 5 C8.67 7.31 8.34 9.62 8 12 C2.63539533 9.97337157 2.63539533 9.97337157 0.8984375 7.3125 C0.0625 5.4375 0.0625 5.4375 -1 2 C-0.67 1.34 -0.34 0.68 0 0 Z " fill="#6DAAD9" transform="translate(231,345)"/>
<path d="M0 0 C0.99 0.33 1.98 0.66 3 1 C3 1.99 3 2.98 3 4 C2.34 4 1.68 4 1 4 C1.309375 5.11375 1.309375 5.11375 1.625 6.25 C2.04408751 9.32330841 1.61949011 10.42786866 0 13 C-0.66 12.67 -1.32 12.34 -2 12 C-2.4140625 9.71484375 -2.4140625 9.71484375 -2.625 6.9375 C-2.69976562 6.01839844 -2.77453125 5.09929687 -2.8515625 4.15234375 C-2.90054688 3.44207031 -2.94953125 2.73179687 -3 2 C-2.01 1.34 -1.02 0.68 0 0 Z " fill="#71B0E1" transform="translate(205,295)"/>
<path d="M0 0 C2.55971379 1.27985689 2.93678522 2.47862763 4.25 5 C6.52406697 9.26217342 9.12053956 13.15088935 11.9609375 17.0546875 C12.30382812 17.69664062 12.64671875 18.33859375 13 19 C12.67 19.99 12.34 20.98 12 22 C8.93885325 18.31145605 6.29220613 14.50032202 3.75 10.4375 C3.04359375 9.32246094 2.3371875 8.20742187 1.609375 7.05859375 C0 4 0 4 0 0 Z " fill="#9FC1DB" transform="translate(189,186)"/>
<path d="M0 0 C0.66 0.33 1.32 0.66 2 1 C0 4 0 4 -2.5 5.4375 C-5.15726223 7.09828889 -5.90985696 8.12598653 -7 11 C-9.4375 10.625 -9.4375 10.625 -12 10 C-12.33 9.34 -12.66 8.68 -13 8 C-11.68 8 -10.36 8 -9 8 C-9 6.68 -9 5.36 -9 4 C-7.54618103 3.30300448 -6.08677047 2.61766134 -4.625 1.9375 C-3.81289063 1.55464844 -3.00078125 1.17179688 -2.1640625 0.77734375 C-1.09285156 0.39255859 -1.09285156 0.39255859 0 0 Z " fill="#6686D8" transform="translate(317,157)"/>
<path d="M0 0 C1.32 0.33 2.64 0.66 4 1 C4.103125 1.639375 4.20625 2.27875 4.3125 2.9375 C4.539375 3.618125 4.76625 4.29875 5 5 C5.99 5.33 6.98 5.66 8 6 C9.421875 7.92578125 9.421875 7.92578125 10.75 10.3125 C11.19859375 11.09238281 11.6471875 11.87226563 12.109375 12.67578125 C13.11611108 15.30300917 12.97226335 16.40927388 12 19 C10.65828736 17.06829319 9.32687117 15.12943124 8 13.1875 C7.2575 12.10855469 6.515 11.02960938 5.75 9.91796875 C4 7 4 7 4 4 C3.34 4 2.68 4 2 4 C1.34 2.68 0.68 1.36 0 0 Z " fill="#A9CBE5" transform="translate(145,220)"/>
<path d="M0 0 C3.68646141 1.45855647 5.16143971 3.30229045 7.25 6.625 C8.03117188 7.85089844 8.03117188 7.85089844 8.828125 9.1015625 C9.21484375 9.72804688 9.6015625 10.35453125 10 11 C9 13 9 13 7 14 C5.82508418 12.23462904 4.66031316 10.46250287 3.5 8.6875 C2.8503125 7.70136719 2.200625 6.71523438 1.53125 5.69921875 C0 3 0 3 0 0 Z " fill="#6E95C2" transform="translate(239,265)"/>
<path d="M0 0 C0.33 0.66 0.66 1.32 1 2 C3.02463255 2.65213292 3.02463255 2.65213292 5 3 C3.85865673 5.00256574 2.71181367 7.00199797 1.5625 9 C0.60537109 10.670625 0.60537109 10.670625 -0.37109375 12.375 C-0.90863281 13.24125 -1.44617188 14.1075 -2 15 C-2.33 15 -2.66 15 -3 15 C-2.44854729 9.76119922 -1.57077907 5.02649303 0 0 Z " fill="#4D76DA" transform="translate(355,154)"/>
<path d="M0 0 C0.99 0.33 1.98 0.66 3 1 C1.61219205 4.89006773 -0.2152227 7.96558708 -2.625 11.3125 C-3.25664062 12.19550781 -3.88828125 13.07851563 -4.5390625 13.98828125 C-5.02117187 14.65214844 -5.50328125 15.31601562 -6 16 C-6.33 14.68 -6.66 13.36 -7 12 C-6.34 12 -5.68 12 -5 12 C-5 10.35 -5 8.7 -5 7 C-4.01 7 -3.02 7 -2 7 C-1.855625 6.030625 -1.71125 5.06125 -1.5625 4.0625 C-1 1 -1 1 0 0 Z " fill="#4369A8" transform="translate(305,297)"/>
<path d="M0 0 C0.66 1.32 1.32 2.64 2 4 C0.52464063 6.00291212 -0.95502293 8.00236777 -2.4375 10 C-2.85837891 10.57234375 -3.27925781 11.1446875 -3.71289062 11.734375 C-4.78444136 13.17453919 -5.88966676 14.58951996 -7 16 C-7.33 16 -7.66 16 -8 16 C-8 14.35 -8 12.7 -8 11 C-6.68 10.34 -5.36 9.68 -4 9 C-4 8.34 -4 7.68 -4 7 C-3.34 7 -2.68 7 -2 7 C-1.855625 6.030625 -1.71125 5.06125 -1.5625 4.0625 C-1 1 -1 1 0 0 Z " fill="#39519A" transform="translate(270,349)"/>
<path d="M0 0 C6.83086732 2.14684401 10.64184228 7.64569195 15 13 C11.70814262 13.36576193 10.41418168 13.3221413 7.75 11.25 C6 9 6 9 5.5625 7.0625 C4.68745506 3.85400188 2.38927664 2.20548613 0 0 Z " fill="#143497" transform="translate(368,239)"/>
<path d="M0 0 C3.79588866 0.54226981 5.47211993 2.20127563 8 5 C7.34 5 6.68 5 6 5 C6 5.66 6 6.32 6 7 C1.25 6.25 1.25 6.25 -1 4 C-0.625 1.875 -0.625 1.875 0 0 Z " fill="#0A206B" transform="translate(353,229)"/>
<path d="M0 0 C2.86392794 3.52830761 5.58784278 7.12984917 8.25 10.8125 C8.95640625 11.78832031 9.6628125 12.76414063 10.390625 13.76953125 C10.92171875 14.50558594 11.4528125 15.24164063 12 16 C11.67 16.66 11.34 17.32 11 18 C6.55059085 13.94318577 2.79180015 9.36294256 0 4 C0 2.68 0 1.36 0 0 Z " fill="#95B7D5" transform="translate(210,219)"/>
<path d="M0 0 C0.33 0.66 0.66 1.32 1 2 C-0.3984375 4.6015625 -0.3984375 4.6015625 -2.375 7.625 C-3.34566406 9.12933594 -3.34566406 9.12933594 -4.3359375 10.6640625 C-4.88507813 11.43492187 -5.43421875 12.20578125 -6 13 C-6.33 13 -6.66 13 -7 13 C-7.2295711 9.63295715 -7.33943529 7.58629732 -5.625 4.625 C-5.08875 4.08875 -4.5525 3.5525 -4 3 C-3.34 3 -2.68 3 -2 3 C-2 2.34 -2 1.68 -2 1 C-1.34 0.67 -0.68 0.34 0 0 Z " fill="#37529A" transform="translate(321,276)"/>
<path d="M0 0 C0.33 0.99 0.66 1.98 1 3 C-0.29296875 5.4453125 -0.29296875 5.4453125 -2.1875 8.125 C-3.10595703 9.45917969 -3.10595703 9.45917969 -4.04296875 10.8203125 C-6.0860134 13.09579935 -7.01785896 13.66938569 -10 14 C-6.84577733 9.17403931 -3.71080883 4.42442592 0 0 Z " fill="#809CDC" transform="translate(264,268)"/>
<path d="M0 0 C0.33 0.66 0.66 1.32 1 2 C0.0625 4.125 0.0625 4.125 -1 6 C-1.66 6 -2.32 6 -3 6 C-3.33 8.31 -3.66 10.62 -4 13 C-5.65 13.33 -7.3 13.66 -9 14 C-6.7650674 8.26908345 -4.69267989 4.0409188 0 0 Z " fill="#3D5DB9" transform="translate(289,234)"/>
<path d="M0 0 C2 2 2 2 2 6 C1.34 6 0.68 6 0 6 C0.0825 6.9075 0.165 7.815 0.25 8.75 C0 12 0 12 -2 14.375 C-2.66 14.91125 -3.32 15.4475 -4 16 C-3.27275406 10.47293087 -1.66554027 5.30039859 0 0 Z " fill="#253E9B" transform="translate(347,230)"/>
<path d="M0 0 C0.33 0 0.66 0 1 0 C1.22537111 3.12401779 1.42738648 6.24911333 1.625 9.375 C1.68945312 10.26445312 1.75390625 11.15390625 1.8203125 12.0703125 C1.871875 12.92109375 1.9234375 13.771875 1.9765625 14.6484375 C2.02893066 15.43395996 2.08129883 16.21948242 2.13525391 17.02880859 C2 19 2 19 0 21 C-1.97636787 14.17682521 -1.20194795 6.91120071 0 0 Z " fill="#3451AC" transform="translate(381,216)"/>
<path d="M0 0 C0.99 0.33 1.98 0.66 3 1 C3 1.99 3 2.98 3 4 C5.475 4.99 5.475 4.99 8 6 C7.67 6.66 7.34 7.32 7 8 C2.14922412 6.88059018 -0.777893 5.8665284 -4 2 C-3.01 2 -2.02 2 -1 2 C-0.67 1.34 -0.34 0.68 0 0 Z " fill="#6A89DB" transform="translate(304,192)"/>
<path d="M0 0 C7.81636537 1.91722169 7.81636537 1.91722169 10 5 C10 5.66 10 6.32 10 7 C8.35 7 6.7 7 5 7 C4.34 5.68 3.68 4.36 3 3 C2.01 3 1.02 3 0 3 C0 2.01 0 1.02 0 0 Z " fill="#031A72" transform="translate(324,207)"/>
<path d="M0 0 C2.95749791 3.46741134 5.07848152 6.86873527 7 11 C4 12 4 12 1 11 C0.67 7.37 0.34 3.74 0 0 Z " fill="#90C7EB" transform="translate(193,196)"/>
<path d="M0 0 C-0.78318689 3.91593446 -2.39179858 7.36406635 -4 11 C-4.66 10.67 -5.32 10.34 -6 10 C-5.38909774 3.52443609 -5.38909774 3.52443609 -3.5625 1.0625 C-2 0 -2 0 0 0 Z " fill="#5372C6" transform="translate(271,261)"/>
<path d="M0 0 C0.99 0.33 1.98 0.66 3 1 C4 7.625 4 7.625 4 11 C1.69 9.02 -0.62 7.04 -3 5 C-2.34 4.67 -1.68 4.34 -1 4 C-0.34786708 1.97536745 -0.34786708 1.97536745 0 0 Z " fill="#314897" transform="translate(360,232)"/>
<path d="M0 0 C0.66 0.33 1.32 0.66 2 1 C-2.95137696 5.95137696 -8.31152244 6.89607652 -15 8 C-13.41169958 4.82339917 -10.19515574 4.13200316 -7.0625 2.8125 C-6.41603516 2.52697266 -5.76957031 2.24144531 -5.10351562 1.94726562 C-3.42886164 1.23253791 -1.71580039 0.60936911 0 0 Z " fill="#95A9DC" transform="translate(353,141)"/>
<path d="M0 0 C4.20626034 1.50223584 5.73900021 4.28550034 8 8 C7.67 8.66 7.34 9.32 7 10 C5.68 9.34 4.36 8.68 3 8 C3 7.01 3 6.02 3 5 C2.01 4.67 1.02 4.34 0 4 C0 2.68 0 1.36 0 0 Z " fill="#8CB6D5" transform="translate(224,242)"/>
<path d="M0 0 C0.99 0 1.98 0 3 0 C3 0.99 3 1.98 3 3 C3.66 2.67 4.32 2.34 5 2 C6.99960012 1.960008 9.00047242 1.95653201 11 2 C11 2.33 11 2.66 11 3 C6.45352102 4.1732849 1.66972706 4.54128467 -3 4 C-3.66 3.34 -4.32 2.68 -5 2 C-3.35 2 -1.7 2 0 2 C0 1.34 0 0.68 0 0 Z " fill="#577DAE" transform="translate(251,363)"/>
<path d="M0 0 C0.66 0.33 1.32 0.66 2 1 C2 2.65 2 4.3 2 6 C1.01 6 0.02 6 -1 6 C-2.33981486 6.3062434 -3.67511887 6.63451555 -5 7 C-5 6.01 -5 5.02 -5 4 C-2.5 1.8125 -2.5 1.8125 0 0 Z " fill="#5479DB" transform="translate(350,145)"/>
<path d="M0 0 C2.9375 1.0625 2.9375 1.0625 6 3 C6.875 6.6875 6.875 6.6875 7 10 C3.60582235 6.87378374 1.3937282 4.43458973 0 0 Z " fill="#87B6D8" transform="translate(235,355)"/>
<path d="M0 0 C0.99 0 1.98 0 3 0 C3.33 0.66 3.66 1.32 4 2 C4.66 1.67 5.32 1.34 6 1 C6.66 2.98 7.32 4.96 8 7 C4.65980694 6.40353695 2.49529367 5.31705841 0 3 C0 2.01 0 1.02 0 0 Z " fill="#69ABDC" transform="translate(216,324)"/>
<path d="M0 0 C0.66 0 1.32 0 2 0 C2.33 0.66 2.66 1.32 3 2 C3.99 2 4.98 2 6 2 C6 4.31 6 6.62 6 9 C0.42857143 3.85714286 0.42857143 3.85714286 0 0 Z " fill="#6AAEE3" transform="translate(209,311)"/>
<path d="M0 0 C0.66 0 1.32 0 2 0 C3.59162079 5.57067277 4.20674944 10.21101581 4 16 C3.67 16 3.34 16 3 16 C1.75799248 10.6822785 0.69165788 5.41798672 0 0 Z " fill="#1B4494" transform="translate(250,282)"/>
<path d="M0 0 C0.99 0.33 1.98 0.66 3 1 C2.34 1.66 1.68 2.32 1 3 C0.525625 4.11375 0.05125 5.2275 -0.4375 6.375 C-1.73106478 9.37607028 -2.92306037 11.52745282 -5 14 C-5 12.35 -5 10.7 -5 9 C-4.34 9 -3.68 9 -3 9 C-2.87625 8.443125 -2.7525 7.88625 -2.625 7.3125 C-1.94023145 4.77885636 -1.00866237 2.42078968 0 0 Z " fill="#0E246B" transform="translate(352,227)"/>
<path d="M0 0 C2.12038635 2.61514317 4.13091744 5.19637616 6 8 C4.68 8.33 3.36 8.66 2 9 C2 7.68 2 6.36 2 5 C1.01 5.33 0.02 5.66 -1 6 C-0.67 4.02 -0.34 2.04 0 0 Z " fill="#6FADE3" transform="translate(243,274)"/>
<path d="M0 0 C0.66 0 1.32 0 2 0 C1.51386623 5.46900489 1.51386623 5.46900489 -0.875 7.9375 C-3 9 -3 9 -6 8 C-5.04956626 6.66102417 -4.08940853 5.32894573 -3.125 4 C-2.59132813 3.2575 -2.05765625 2.515 -1.5078125 1.75 C-1.01023437 1.1725 -0.51265625 0.595 0 0 Z " fill="#2A50BC" transform="translate(309,206)"/>
<path d="M0 0 C-0.33 0.66 -0.66 1.32 -1 2 C-3.58317727 2.39465208 -6.14188281 2.50806152 -8.75 2.65625 C-9.4925 2.7696875 -10.235 2.883125 -11 3 C-11.33 3.66 -11.66 4.32 -12 5 C-12.66 4.34 -13.32 3.68 -14 3 C-4.58997722 -1.77676538 -4.58997722 -1.77676538 0 0 Z " fill="#9EB1E3" transform="translate(295,170)"/>
<path d="M0 0 C0.66 0 1.32 0 2 0 C1.38545304 3.99455527 -0.70646737 6.74466336 -3 10 C-4.2077558 6.37673261 -3.54311128 5.35853631 -2 2 C-1.34 2 -0.68 2 0 2 C0 1.34 0 0.68 0 0 Z " fill="#39519A" transform="translate(295,313)"/>
<path d="M0 0 C0.99 0.33 1.98 0.66 3 1 C3.99 0.67 4.98 0.34 6 0 C6.33 0.99 6.66 1.98 7 3 C6.34 3 5.68 3 5 3 C5 4.65 5 6.3 5 8 C4.67 7.34 4.34 6.68 4 6 C3.34 6 2.68 6 2 6 C1.34 4.02 0.68 2.04 0 0 Z " fill="#74AFDC" transform="translate(192,288)"/>
<path d="M0 0 C2.475 0.495 2.475 0.495 5 1 C5 1.99 5 2.98 5 4 C5.66 4 6.32 4 7 4 C6.34 5.32 5.68 6.64 5 8 C4.67 6.68 4.34 5.36 4 4 C2.68 3.67 1.36 3.34 0 3 C0 2.01 0 1.02 0 0 Z " fill="#93C3E5" transform="translate(145,217)"/>
<path d="M0 0 C4.455 0.99 4.455 0.99 9 2 C6.39685311 3.73543126 5.01305957 4.61121812 2 5 C1.34 4.34 0.68 3.68 0 3 C0 2.01 0 1.02 0 0 Z " fill="#344D9B" transform="translate(266,183)"/>
<path d="M0 0 C0.66 0.66 1.32 1.32 2 2 C1.19152271 3.16945792 0.37810888 4.33550461 -0.4375 5.5 C-0.88996094 6.1496875 -1.34242188 6.799375 -1.80859375 7.46875 C-2.20175781 7.9740625 -2.59492188 8.479375 -3 9 C-3.33 9 -3.66 9 -4 9 C-3.6875 5.625 -3.6875 5.625 -3 2 C-2.01 1.34 -1.02 0.68 0 0 Z " fill="#325AA1" transform="translate(276,342)"/>
<path d="M0 0 C2.475 0.495 2.475 0.495 5 1 C5 1.66 5 2.32 5 3 C6.98 2.67 8.96 2.34 11 2 C11 2.99 11 3.98 11 5 C4.6 4.50769231 4.6 4.50769231 1.5625 1.9375 C1.046875 1.298125 0.53125 0.65875 0 0 Z " fill="#627FB2" transform="translate(373,249)"/>
<path d="M0 0 C0.99 0 1.98 0 3 0 C4.28317892 3.84953676 4.06643637 6.94738135 4 11 C3.01 10.67 2.02 10.34 1 10 C0.67 6.7 0.34 3.4 0 0 Z " fill="#556BB1" transform="translate(371,136)"/>
<path d="M0 0 C0.33 0.99 0.66 1.98 1 3 C1.99 2.67 2.98 2.34 4 2 C3.6875 3.875 3.6875 3.875 3 6 C2.01 6.66 1.02 7.32 0 8 C-1.125 6.25 -1.125 6.25 -2 4 C-1.125 1.75 -1.125 1.75 0 0 Z " fill="#1A3EA7" transform="translate(274,336)"/>
<path d="M0 0 C1 3 1 3 0.0390625 5.04296875 C-0.42757813 5.75066406 -0.89421875 6.45835937 -1.375 7.1875 C-1.83648437 7.90292969 -2.29796875 8.61835938 -2.7734375 9.35546875 C-3.17820312 9.89816406 -3.58296875 10.44085938 -4 11 C-4.33 11 -4.66 11 -5 11 C-5.39169887 8.33644766 -5.40564529 6.60775627 -3.88671875 4.33203125 C-2.63610683 2.8489112 -1.32135486 1.42045648 0 0 Z " fill="#5266A3" transform="translate(333,258)"/>
<path d="M0 0 C2 0.6875 2 0.6875 4 2.6875 C4 3.6775 4 4.6675 4 5.6875 C1.04590299 4.31595496 -1.44008376 2.69886276 -4 0.6875 C-2 -0.3125 -2 -0.3125 0 0 Z " fill="#2A4BAF" transform="translate(332,207.3125)"/>
<path d="M0 0 C3.67230705 3.07999946 4.56802365 5.2482602 5 10 C1.32769295 6.92000054 0.43197635 4.7517398 0 0 Z " fill="#98BFDB" transform="translate(209,314)"/>
<path d="M0 0 C0.66 0.33 1.32 0.66 2 1 C1.360625 1.9075 0.72125 2.815 0.0625 3.75 C-1.61428953 6.39221381 -2.53689998 7.9898499 -3 11 C-3.99 11 -4.98 11 -6 11 C-4.54955729 6.89041233 -2.48889248 3.56741255 0 0 Z " fill="#8BABE1" transform="translate(276,250)"/>
<path d="M0 0 C0.66 0.33 1.32 0.66 2 1 C1.01 2.485 1.01 2.485 0 4 C-3.125 4.1875 -3.125 4.1875 -6 4 C-6.33 4.66 -6.66 5.32 -7 6 C-7.66 5.34 -8.32 4.68 -9 4 C-7.54618103 3.30300448 -6.08677047 2.61766134 -4.625 1.9375 C-3.40683594 1.36322266 -3.40683594 1.36322266 -2.1640625 0.77734375 C-1.44992187 0.52082031 -0.73578125 0.26429688 0 0 Z " fill="#93A8DE" transform="translate(317,157)"/>
<path d="M0 0 C2.5 1.375 2.5 1.375 5 3 C5 3.66 5 4.32 5 5 C5.99 5.33 6.98 5.66 8 6 C6.68 6.33 5.36 6.66 4 7 C0 2.25 0 2.25 0 0 Z " fill="#96BFE0" transform="translate(216,327)"/>
<path d="M0 0 C1.46015291 0.28241641 2.91809793 0.57626614 4.375 0.875 C5.18710937 1.03742188 5.99921875 1.19984375 6.8359375 1.3671875 C9 2 9 2 11 4 C6.35108046 4.32434322 3.77593392 3.776422 0 1 C0 0.67 0 0.34 0 0 Z " fill="#465894" transform="translate(298,196)"/>
<path d="M0 0 C0 0.33 0 0.66 0 1 C-4.455 1.495 -4.455 1.495 -9 2 C-9 1.01 -9 0.02 -9 -1 C-5.23375329 -2.25541557 -3.62811066 -1.37061958 0 0 Z " fill="#689ACB" transform="translate(251,364)"/>
<path d="M0 0 C0.99 0 1.98 0 3 0 C2.42647107 3.87132028 0.51295648 6.08172796 -2 9 C-2 7.68 -2 6.36 -2 5 C-1.34 5 -0.68 5 0 5 C0 3.35 0 1.7 0 0 Z " fill="#3F579B" transform="translate(300,304)"/>
<path d="M0 0 C2.0625 0.4375 2.0625 0.4375 4 1 C4 1.99 4 2.98 4 4 C2.68 4.33 1.36 4.66 0 5 C-0.5625 3.0625 -0.5625 3.0625 -1 1 C-0.67 0.67 -0.34 0.34 0 0 Z " fill="#77B5E5" transform="translate(233,262)"/>
<path d="M0 0 C0.33 0.66 0.66 1.32 1 2 C0.21654285 3.17219543 -0.57702836 4.33763668 -1.375 5.5 C-1.81585938 6.1496875 -2.25671875 6.799375 -2.7109375 7.46875 C-3.13632812 7.9740625 -3.56171875 8.479375 -4 9 C-4.66 9 -5.32 9 -6 9 C-5.52797514 4.75177626 -3.03344482 2.80010291 0 0 Z " fill="#3657BD" transform="translate(300,219)"/>
<path d="M0 0 C0.66 0.33 1.32 0.66 2 1 C1.67 2.32 1.34 3.64 1 5 C-1.97 4.505 -1.97 4.505 -5 4 C-3.35 2.68 -1.7 1.36 0 0 Z " fill="#5678D1" transform="translate(329,203)"/>
<path d="M0 0 C0.99 0.33 1.98 0.66 3 1 C3 1.66 3 2.32 3 3 C3.66 3.33 4.32 3.66 5 4 C4.67 5.32 4.34 6.64 4 8 C0 2.25 0 2.25 0 0 Z " fill="#9FBEDF" transform="translate(178,269)"/>
<path d="M0 0 C2.31 0.33 4.62 0.66 7 1 C7.33 2.65 7.66 4.3 8 6 C4.63408134 4.55746343 2.48952921 2.66735273 0 0 Z " fill="#6579BB" transform="translate(365,243)"/>
<path d="M0 0 C0.99 0 1.98 0 3 0 C3 1.65 3 3.3 3 5 C1.68 4.67 0.36 4.34 -1 4 C-0.67 2.68 -0.34 1.36 0 0 Z " fill="#00093D" transform="translate(353,229)"/>
<path d="M0 0 C0.66 0 1.32 0 2 0 C1.67 2.31 1.34 4.62 1 7 C0.01 7 -0.98 7 -2 7 C-1.34 4.69 -0.68 2.38 0 0 Z " fill="#254FBB" transform="translate(302,216)"/>
<path d="M0 0 C2.0625 1.75 2.0625 1.75 4 4 C3.75 6.25 3.75 6.25 3 8 C2.34 8 1.68 8 1 8 C-0.35439668 5.29120665 -0.06501451 2.99066732 0 0 Z " fill="#9BC1E1" transform="translate(202,207)"/>
<path d="M0 0 C2.5 1.6875 2.5 1.6875 5 4 C5.3125 6.75 5.3125 6.75 5 9 C1.7457985 6.16569547 0.4793247 4.31392226 0 0 Z " fill="#ADCCE4" transform="translate(140,210)"/>
<path d="M0 0 C0.99 0 1.98 0 3 0 C3.66 1.32 4.32 2.64 5 4 C4.01 4.99 3.02 5.98 2 7 C1.34 4.69 0.68 2.38 0 0 Z " fill="#6378C3" transform="translate(306,200)"/>
<path d="M0 0 C0.33 0 0.66 0 1 0 C1 1.65 1 3.3 1 5 C0.34 5 -0.32 5 -1 5 C-1 5.66 -1 6.32 -1 7 C-1.66 7 -2.32 7 -3 7 C-2.25 2.25 -2.25 2.25 0 0 Z " fill="#1D3EA8" transform="translate(267,351)"/>
<path d="M0 0 C1.32 0 2.64 0 4 0 C4.33 1.98 4.66 3.96 5 6 C4.01 6 3.02 6 2 6 C1.34 4.02 0.68 2.04 0 0 Z " fill="#6FA7D7" transform="translate(223,336)"/>
<path d="M0 0 C1.32 0.99 2.64 1.98 4 3 C3.67 4.65 3.34 6.3 3 8 C2.34 7.67 1.68 7.34 1 7 C0.59270772 4.67843403 0.25561323 2.3431213 0 0 Z " fill="#87BADD" transform="translate(213,319)"/>
<path d="M0 0 C3.93673644 1.31224548 6.22719294 2.91910327 9 6 C4.58763974 6 3.21615077 3.9302707 0 1 C0 0.67 0 0.34 0 0 Z " fill="#1B41A7" transform="translate(368,239)"/>
<path d="M0 0 C1.99097846 2.98646769 2.94124926 5.59687262 4 9 C3.01 9 2.02 9 1 9 C0.67 6.03 0.34 3.06 0 0 Z " fill="#A7CBE4" transform="translate(125,183)"/>
<path d="M0 0 C0 0.99 0 1.98 0 3 C-0.639375 3.12375 -1.27875 3.2475 -1.9375 3.375 C-2.618125 3.58125 -3.29875 3.7875 -4 4 C-4.33 4.66 -4.66 5.32 -5 6 C-5.33 5.34 -5.66 4.68 -6 4 C-2.25 0 -2.25 0 0 0 Z " fill="#8F9ED2" transform="translate(270,179)"/>
<path d="M0 0 C-0.33 0.66 -0.66 1.32 -1 2 C-3.64860427 2.59355614 -6.29197322 2.74209269 -9 3 C-9 2.34 -9 1.68 -9 1 C-5.92677456 0.08941469 -3.19902639 -0.08886184 0 0 Z " fill="#6F8AD9" transform="translate(293,172)"/>
<path d="M0 0 C3.63 0 7.26 0 11 0 C11 0.33 11 0.66 11 1 C6.915021 1.54466387 3.1274515 2 -1 2 C-0.67 1.34 -0.34 0.68 0 0 Z " fill="#B6D4E9" transform="translate(160,158)"/>
</svg>
